[Header]                  # Header keywords are followed by a single value
FileType htr              # single word string
DataType HTRS             # Hierarchical translations followed by rotations and Scale
FileVersion 1             # integer
NumSegments   22        # integer
NumFrames  5          # integer
DataFrameRate    60      # integer
EulerRotationOrder ZYX    # one word string
CalibrationUnits mm   # one word string
RotationUnits Degrees     # one word string
GlobalAxisofGravity Y        # character, X or Y or Z
BoneLengthAxis Y
ScaleFactor 1.0000
[SegmentNames&Hierarchy]
#CHILD         PARENT
LowerTorso	GLOBAL
MidTorso1	LowerTorso
MidTorso2	MidTorso1
UpperTorso	MidTorso2
Neck	UpperTorso
Head	Neck
LCollar	UpperTorso
LUpArm	LCollar
LLowArm	LUpArm
LHand	LLowArm
RCollar	UpperTorso
RUpArm	RCollar
RLowArm	RUpArm
RHand	RLowArm
RThigh	LowerTorso
RLowLeg	RThigh
RFoot	RLowLeg
RToe	RFoot
LThigh	LowerTorso
LLowLeg	LThigh
LFoot	LLowLeg
LToe	LFoot
[BasePosition]
#SegmentName Tx, Ty, Tz, Rx, Ry, Rz, BoneLength
LowerTorso	245.857281	950.546486	248.637529	3.098927	-0.002210	0.042162	59.711333	
MidTorso1	0.000000	59.711333	0.000000	12.937915	-0.002675	-0.030860	59.789096	
MidTorso2	0.000000	59.789096	0.000000	-8.588562	0.003459	0.011437	83.428957	
UpperTorso	0.000000	83.428957	0.000000	-7.932331	-0.001012	-0.030752	241.957510	
Neck	0.000000	241.957510	0.000000	-0.094097	0.000027	0.097203	231.829248	
Head	0.000000	231.829248	0.000000	90.077927	-0.000108	-0.089730	91.574582	
LCollar	6.813599	237.360039	0.023153	2.387721	-0.015547	-90.013255	183.371476	
LUpArm	0.000000	183.371476	0.000000	5.326590	-0.698152	6.338799	275.550262	
LLowArm	0.000000	275.550262	0.000000	0.023606	-0.000027	0.019344	209.826044	
LHand	0.000000	209.826044	0.000000	0.056212	0.000012	-0.012212	145.298309	
RCollar	-7.320367	237.102711	-0.039007	12.450709	0.004248	90.115141	167.861514	
RUpArm	0.000000	167.861514	0.000000	-6.122028	-0.820027	-2.646363	291.470253	
RLowArm	0.000000	291.470253	0.000000	0.000001	0.000000	-0.000274	217.757286	
RHand	0.000000	217.757286	0.000000	0.000373	0.000000	0.000511	137.536656	
RThigh	-124.450736	-52.205152	84.621319	5.924306	0.309605	177.207098	421.029795	
RLowLeg	0.000000	421.029795	0.000000	-15.759515	-0.017515	3.120486	365.105663	
RFoot	0.000000	365.105663	0.000000	55.897303	0.149984	-4.373210	148.323736	
RToe	0.000000	148.323736	0.000000	45.100933	2.167436	3.449341	115.306227	
LThigh	124.374466	-52.388373	84.621456	5.928259	-0.221338	-178.140447	426.796764	
LLowLeg	0.000000	426.796764	0.000000	-15.759694	0.017551	-3.120303	361.153822	
LFoot	0.000000	361.153822	0.000000	55.897848	-0.150027	4.373120	146.718976	
LToe	0.000000	146.718976	0.000000	45.100748	-2.167253	-3.449489	114.060784	
#Beginning of Data. Separated by tabs
[LowerTorso]
#Fr     Tx      Ty      Tz      Rx      Ry      Rz      SF
500	-269.116486	-10.919119	228.603073	2.484782	48.335411	-4.566725	1.000000	
501	-278.853027	-2.969631	244.579407	5.043260	51.432690	-3.684588	1.000000	
502	-289.308685	3.788037	258.463135	7.850981	54.071075	-2.850793	1.000000	
503	-296.410431	11.238776	269.040039	10.926909	54.618301	-1.585637	1.000000	
504	-305.238770	14.757352	276.667511	12.063899	54.590584	-0.877557	1.000000	
[MidTorso1]
#Fr     Tx      Ty      Tz      Rx      Ry      Rz      SF
500	0.000000	0.000000	0.000000	2.811257	-5.937997	0.052147	1.000000	
501	0.000000	0.000000	0.000000	2.530108	-5.797101	-0.454531	1.000000	
502	0.000000	0.000000	0.000000	2.336540	-5.399948	-0.855120	1.000000	
503	0.000000	0.000000	0.000000	1.966306	-4.876949	-1.510444	1.000000	
504	0.000000	0.000000	0.000000	2.535176	-4.086229	-1.904810	1.000000	
[MidTorso2]
#Fr     Tx      Ty      Tz      Rx      Ry      Rz      SF
500	0.000000	0.000000	0.000000	2.855809	-5.879553	-0.838204	1.000000	
501	0.000000	0.000000	0.000000	2.571153	-5.664541	-1.317812	1.000000	
502	0.000000	0.000000	0.000000	2.370460	-5.212036	-1.653932	1.000000	
503	0.000000	0.000000	0.000000	1.990325	-4.597055	-2.222982	1.000000	
504	0.000000	0.000000	0.000000	2.548306	-3.756513	-2.494086	1.000000	
[UpperTorso]
#Fr     Tx      Ty      Tz      Rx      Ry      Rz      SF
500	0.000000	0.000000	0.000000	2.897857	-5.705910	-1.644095	1.000000	
501	0.000000	0.000000	0.000000	2.608007	-5.426974	-2.088967	1.000000	
502	0.000000	0.000000	0.000000	2.399575	-4.932591	-2.358761	1.000000	
503	0.000000	0.000000	0.000000	2.008699	-4.245283	-2.836714	1.000000	
504	0.000000	0.000000	0.000000	2.556577	-3.375149	-2.988605	1.000000	
[Neck]
#Fr     Tx      Ty      Tz      Rx      Ry      Rz      SF
500	0.000000	0.000000	0.000000	-13.253807	-8.047295	4.419414	1.000000	
501	0.000000	0.000000	0.000000	-14.869380	-12.022248	3.932566	1.000000	
502	0.000000	0.000000	0.000000	-16.425730	-16.406649	3.082013	1.000000	
503	0.000000	0.000000	0.000000	-15.882354	-19.687502	2.443286	1.000000	
504	0.000000	0.000000	0.000000	-16.563364	-22.507311	1.128157	1.000000	
[Head]
#Fr     Tx      Ty      Tz      Rx      Ry      Rz      SF
500	0.000000	0.000000	0.000000	3.035347	2.652178	0.300252	1.000000	
501	0.000000	0.000000	0.000000	4.359404	3.868144	0.464380	1.000000	
502	0.000000	0.000000	0.000000	5.729943	5.068164	0.634885	1.000000	
503	0.000000	0.000000	0.000000	8.823654	6.094129	0.964726	1.000000	
504	0.000000	0.000000	0.000000	9.538572	7.083680	0.953632	1.000000	
[LCollar]
#Fr     Tx      Ty      Tz      Rx      Ry      Rz      SF
500	0.000000	0.000000	0.000000	6.066031	0.737461	-6.905568	1.000000	
501	0.000000	0.000000	0.000000	5.744303	0.795981	-7.862611	1.000000	
502	0.000000	0.000000	0.000000	5.659517	0.929527	-9.296595	1.000000	
503	0.000000	0.000000	0.000000	8.397704	1.357283	-9.115368	1.000000	
504	0.000000	0.000000	0.000000	8.470619	1.608699	-10.675096	1.000000	
[LUpArm]
#Fr     Tx      Ty      Tz      Rx      Ry      Rz      SF
500	0.000000	0.000000	0.000000	60.458832	22.425352	-39.502888	1.000000	
501	0.000000	0.000000	0.000000	62.522076	23.304390	-37.043907	1.000000	
502	0.000000	0.000000	0.000000	64.150742	23.442940	-35.221413	1.000000	
503	0.000000	0.000000	0.000000	61.070431	24.145977	-36.830067	1.000000	
504	0.000000	0.000000	0.000000	60.953621	22.782106	-37.221275	1.000000	
[LLowArm]
#Fr     Tx      Ty      Tz      Rx      Ry      Rz      SF
500	0.000000	0.000000	0.000000	117.915237	-0.010828	-0.018112	1.000000	
501	0.000000	0.000000	0.000000	118.017258	-0.010818	-0.018131	1.000000	
502	0.000000	0.000000	0.000000	118.260689	-0.010793	-0.018178	1.000000	
503	0.000000	0.000000	0.000000	119.966690	-0.010614	-0.018497	1.000000	
504	0.000000	0.000000	0.000000	120.081360	-0.010601	-0.018519	1.000000	
[LHand]
#Fr     Tx      Ty      Tz      Rx      Ry      Rz      SF
500	0.000000	0.000000	0.000000	10.540279	13.418290	7.974208	1.000000	
501	0.000000	0.000000	0.000000	10.743190	10.924813	7.506575	1.000000	
502	0.000000	0.000000	0.000000	10.802064	8.794958	7.059484	1.000000	
503	0.000000	0.000000	0.000000	9.621422	10.382504	7.946954	1.000000	
504	0.000000	0.000000	0.000000	9.518328	9.901592	8.278477	1.000000	
[RCollar]
#Fr     Tx      Ty      Tz      Rx      Ry      Rz      SF
500	0.000000	0.000000	0.000000	5.711020	-1.827321	17.685419	1.000000	
501	0.000000	0.000000	0.000000	5.450202	-1.333819	13.710985	1.000000	
502	0.000000	0.000000	0.000000	5.157668	-0.771309	8.482810	1.000000	
503	0.000000	0.000000	0.000000	4.312244	-0.738884	9.705152	1.000000	
504	0.000000	0.000000	0.000000	5.469814	-0.355445	3.706979	1.000000	
[RUpArm]
#Fr     Tx      Ty      Tz      Rx      Ry      Rz      SF
500	0.000000	0.000000	0.000000	23.897678	10.485822	36.602470	1.000000	
501	0.000000	0.000000	0.000000	19.691566	17.575859	34.950188	1.000000	
502	0.000000	0.000000	0.000000	15.682829	26.897001	33.183342	1.000000	
503	0.000000	0.000000	0.000000	16.657831	36.689865	22.584822	1.000000	
504	0.000000	0.000000	0.000000	15.672400	43.848450	18.741648	1.000000	
[RLowArm]
#Fr     Tx      Ty      Tz      Rx      Ry      Rz      SF
500	0.000000	0.000000	0.000000	134.379654	0.000149	0.000261	1.000000	
501	0.000000	0.000000	0.000000	134.607925	0.000148	0.000261	1.000000	
502	0.000000	0.000000	0.000000	130.894318	0.000155	0.000252	1.000000	
503	0.000000	0.000000	0.000000	115.158623	0.000174	0.000212	1.000000	
504	0.000000	0.000000	0.000000	98.707771	0.000182	0.000167	1.000000	
[RHand]
#Fr     Tx      Ty      Tz      Rx      Ry      Rz      SF
500	0.000000	0.000000	0.000000	-8.291617	-15.275447	-12.279652	1.000000	
501	0.000000	0.000000	0.000000	-8.335470	-10.573189	-9.552122	1.000000	
502	0.000000	0.000000	0.000000	-7.389008	-3.924723	-8.303072	1.000000	
503	0.000000	0.000000	0.000000	0.455171	-0.466481	-15.070010	1.000000	
504	0.000000	0.000000	0.000000	-1.152243	4.760931	-17.967047	1.000000	
[RThigh]
#Fr     Tx      Ty      Tz      Rx      Ry      Rz      SF
500	0.000000	0.000000	0.000000	24.595001	26.082253	0.143139	1.000000	
501	0.000000	0.000000	0.000000	23.430349	25.773273	0.311011	1.000000	
502	0.000000	0.000000	0.000000	23.489250	25.315674	1.121883	1.000000	
503	0.000000	0.000000	0.000000	24.426542	24.067757	1.869771	1.000000	
504	0.000000	0.000000	0.000000	24.397556	22.689659	2.394222	1.000000	
[RLowLeg]
#Fr     Tx      Ty      Tz      Rx      Ry      Rz      SF
500	0.000000	0.000000	0.000000	-30.071478	0.000021	-0.000009	1.000000	
501	0.000000	0.000000	0.000000	-26.809324	0.000019	-0.000008	1.000000	
502	0.000000	0.000000	0.000000	-24.228230	0.000017	-0.000006	1.000000	
503	0.000000	0.000000	0.000000	-22.148237	0.000016	-0.000006	1.000000	
504	0.000000	0.000000	0.000000	-20.668995	0.000015	-0.000005	1.000000	
[RFoot]
#Fr     Tx      Ty      Tz      Rx      Ry      Rz      SF
500	0.000000	0.000000	0.000000	-10.164145	8.153741	-2.063677	1.000000	
501	0.000000	0.000000	0.000000	-8.526203	9.635200	-2.620533	1.000000	
502	0.000000	0.000000	0.000000	-7.166547	10.705272	-3.742531	1.000000	
503	0.000000	0.000000	0.000000	-6.737342	10.748692	-4.691234	1.000000	
504	0.000000	0.000000	0.000000	-6.558451	10.819979	-5.833613	1.000000	
[RToe]
#Fr     Tx      Ty      Tz      Rx      Ry      Rz      SF
500	0.000000	0.000000	0.000000	8.782495	0.000003	0.000004	1.000000	
501	0.000000	0.000000	0.000000	9.342297	0.000004	0.000005	1.000000	
502	0.000000	0.000000	0.000000	9.516081	0.000004	0.000005	1.000000	
503	0.000000	0.000000	0.000000	9.198800	0.000004	0.000005	1.000000	
504	0.000000	0.000000	0.000000	9.040014	0.000004	0.000005	1.000000	
[LThigh]
#Fr     Tx      Ty      Tz      Rx      Ry      Rz      SF
500	0.000000	0.000000	0.000000	1.056198	-7.773436	7.181648	1.000000	
501	0.000000	0.000000	0.000000	6.068859	-6.521617	7.244475	1.000000	
502	0.000000	0.000000	0.000000	12.079693	-5.277403	7.043252	1.000000	
503	0.000000	0.000000	0.000000	16.926825	-5.082870	6.096522	1.000000	
504	0.000000	0.000000	0.000000	20.569202	-5.323367	5.368460	1.000000	
[LLowLeg]
#Fr     Tx      Ty      Tz      Rx      Ry      Rz      SF
500	0.000000	0.000000	0.000000	-20.204529	0.000010	-0.000002	1.000000	
501	0.000000	0.000000	0.000000	-23.126478	0.000011	-0.000002	1.000000	
502	0.000000	0.000000	0.000000	-26.960667	0.000012	-0.000003	1.000000	
503	0.000000	0.000000	0.000000	-29.542429	0.000014	-0.000004	1.000000	
504	0.000000	0.000000	0.000000	-32.346729	0.000015	-0.000004	1.000000	
[LFoot]
#Fr     Tx      Ty      Tz      Rx      Ry      Rz      SF
500	0.000000	0.000000	0.000000	0.169902	-5.388454	-8.398073	1.000000	
501	0.000000	0.000000	0.000000	-3.090166	-5.905274	-9.443872	1.000000	
502	0.000000	0.000000	0.000000	-5.519706	-6.661793	-9.176761	1.000000	
503	0.000000	0.000000	0.000000	-6.795341	-7.445765	-7.638451	1.000000	
504	0.000000	0.000000	0.000000	-7.572796	-7.621627	-6.761993	1.000000	
[LToe]
#Fr     Tx      Ty      Tz      Rx      Ry      Rz      SF
500	0.000000	0.000000	0.000000	9.885150	0.000038	0.000002	1.000000	
501	0.000000	0.000000	0.000000	9.833457	0.000038	0.000002	1.000000	
502	0.000000	0.000000	0.000000	9.314751	0.000036	0.000001	1.000000	
503	0.000000	0.000000	0.000000	7.234154	0.000028	0.000001	1.000000	
504	0.000000	0.000000	0.000000	6.492374	0.000025	0.000000	1.000000	
[EndOfFile]
